<?xml version="1.0" standalone="no"?>
<!DOCTYPE svg PUBLIC "-//W3C//DTD SVG 20010904//EN"
 "http://www.w3.org/TR/2001/REC-SVG-20010904/DTD/svg10.dtd">
<svg version="1.0" xmlns="http://www.w3.org/2000/svg"
 width="700.000000pt" height="700.000000pt" viewBox="0 0 700.000000 700.000000"
 preserveAspectRatio="xMidYMid meet">
<metadata>
Created by potrace 1.14, written by Peter Selinger 2001-2017
</metadata>
<g transform="translate(0.000000,700.000000) scale(0.100000,-0.100000)"
fill="#000000" stroke="none">
<path d="M5712 6213 c-61 -26 -123 -83 -152 -138 -35 -69 -35 -179 0 -249 105
-205 402 -203 501 3 27 56 33 155 13 214 -19 57 -82 127 -137 155 -64 32 -167
38 -225 15z"/>
<path d="M5342 6137 c-12 -13 -22 -33 -22 -46 0 -28 42 -71 70 -71 12 0 32 11
45 25 14 13 25 34 25 45 0 28 -43 70 -73 70 -13 0 -33 -10 -45 -23z"/>
<path d="M3319 6086 c-2 -2 -38 -7 -79 -11 -111 -11 -119 -12 -190 -24 -133
-24 -398 -95 -450 -121 -8 -5 -46 -20 -85 -36 -78 -30 -209 -93 -300 -144 -87
-49 -305 -198 -335 -230 -3 -3 -32 -27 -65 -55 -242 -202 -476 -498 -624 -792
-127 -252 -230 -578 -256 -813 -4 -30 -10 -84 -15 -120 -8 -68 -6 -476 3 -520
3 -14 8 -47 12 -75 3 -27 9 -66 12 -85 5 -35 30 -151 39 -181 3 -11 -7 -19
-38 -28 -63 -19 -143 -106 -164 -178 -42 -145 33 -296 172 -346 60 -21 115
-22 179 -2 27 8 50 13 50 12 1 -1 21 -38 45 -82 209 -388 540 -732 942 -980
202 -124 532 -255 770 -304 24 -5 54 -12 68 -15 14 -3 43 -8 65 -11 22 -3 49
-7 60 -9 107 -21 504 -29 635 -13 36 5 77 10 92 12 68 8 121 19 238 46 917
216 1653 931 1903 1849 26 95 60 278 74 405 10 90 10 441 0 525 -4 36 -10 85
-13 110 -15 133 -71 352 -136 530 -56 156 -206 450 -281 550 -10 14 -41 57
-69 95 -29 39 -54 72 -57 75 -3 3 -28 32 -56 65 -58 70 -206 219 -289 290
-326 280 -791 501 -1196 570 -19 3 -42 8 -50 10 -8 2 -42 7 -75 11 -33 3 -69
8 -80 11 -24 6 -450 14 -456 9z"/>
<path d="M6031 5442 c-46 -23 -72 -61 -78 -113 -9 -81 68 -155 150 -145 133
16 170 179 58 253 -41 27 -84 29 -130 5z"/>
<path d="M842 5090 c-94 -57 -94 -183 0 -240 41 -25 82 -25 127 -2 101 51 106
183 9 242 -18 11 -49 20 -68 20 -19 0 -50 -9 -68 -20z"/>
<path d="M5599 1797 c-90 -60 -88 -181 4 -238 114 -70 257 74 187 189 -43 70
-128 92 -191 49z"/>
<path d="M1682 1030 c-94 -57 -94 -183 0 -240 61 -37 142 -16 185 49 77 115
-67 263 -185 191z"/>
</g>
</svg>
